HIERARCHY
ROOT Hips
{
  OFFSET 90.7885 88.945 -76.2838
  CHANNELS 6 Xposition Yposition Zposition Zrotation Xrotation Yrotation
  JOINT LeftUpLeg
  {
    OFFSET 8.64259 1.95398 -2.38835
    CHANNELS 3 Zrotation Xrotation Yrotation
    JOINT LeftLeg
    {
      OFFSET 43.7702 0 0
      CHANNELS 3 Zrotation Xrotation Yrotation
      JOINT LeftFoot
      {
        OFFSET 40.6238 0 0
        CHANNELS 3 Zrotation Xrotation Yrotation
        JOINT LeftToeBase
        {
          OFFSET 12.7242 0 0
          CHANNELS 3 Zrotation Xrotation Yrotation
          End Site
          {
            OFFSET 0 0 0
          }
        }
      }
    }
  }
  JOINT RightUpLeg
  {
    OFFSET -8.2249 1.95398 -2.59336
    CHANNELS 3 Zrotation Xrotation Yrotation
    JOINT RightLeg
    {
      OFFSET 43.5653 0 0
      CHANNELS 3 Zrotation Xrotation Yrotation
      JOINT RightFoot
      {
        OFFSET 40.6238 0 0
        CHANNELS 3 Zrotation Xrotation Yrotation
        JOINT RightToeBase
        {
          OFFSET 12.7242 0 0
          CHANNELS 3 Zrotation Xrotation Yrotation
          End Site
          {
            OFFSET 0 0 0
          }
        }
      }
    }
  }
  JOINT Spine
  {
    OFFSET 0.165834 0.87714 6.61349
    CHANNELS 3 Zrotation Xrotation Yrotation
    JOINT Spine1
    {
      OFFSET 7.38963 1.71661e-005 0
      CHANNELS 3 Zrotation Xrotation Yrotation
      JOINT Spine2
      {
        OFFSET 11.9445 1.14441e-005 0
        CHANNELS 3 Zrotation Xrotation Yrotation
        JOINT Spine3
        {
          OFFSET 14.7254 4.19617e-005 0
          CHANNELS 3 Zrotation Xrotation Yrotation
          JOINT Spine4
          {
            OFFSET 10.9679 0 0
            CHANNELS 3 Zrotation Xrotation Yrotation
            JOINT RightShoulder
            {
              OFFSET 2.46616 -1.6653 3.69651
              CHANNELS 3 Zrotation Xrotation Yrotation
              JOINT RightArm
              {
                OFFSET 13.0012 0 0
                CHANNELS 3 Zrotation Xrotation Yrotation
                JOINT RightForeArm
                {
                  OFFSET 28.7848 1.52588e-005 0
                  CHANNELS 3 Zrotation Xrotation Yrotation
                  JOINT RightHand
                  {
                    OFFSET 26.5688 1.52588e-005 0
                    CHANNELS 3 Zrotation Xrotation Yrotation
                    End Site
                    {
                      OFFSET 0 0 0
                    }
                  }
                }
              }
            }
            JOINT LeftShoulder
            {
              OFFSET 2.38034 -1.29275 -3.7523
              CHANNELS 3 Zrotation Xrotation Yrotation
              JOINT LeftArm
              {
                OFFSET 16.3182 6.10352e-005 0
                CHANNELS 3 Zrotation Xrotation Yrotation
                JOINT LeftForeArm
                {
                  OFFSET 27.0901 0 0
                  CHANNELS 3 Zrotation Xrotation Yrotation
                  JOINT LeftHand
                  {
                    OFFSET 24.5451 1.52588e-005 0
                    CHANNELS 3 Zrotation Xrotation Yrotation
                    End Site
                    {
                      OFFSET 0 0 0
                    }
                  }
                }
              }
            }
            JOINT Neck
            {
              OFFSET 5.0226 -0.0266342 0
              CHANNELS 3 Zrotation Xrotation Yrotation
              JOINT Head
              {
                OFFSET 6.69363 2.86102e-005 0
                CHANNELS 3 Zrotation Xrotation Yrotation
                End Site
                {
                  OFFSET 0 0 0
                }
              }
            }
          }
        }
      }
    }
  }
}
MOTION
Frames:	12
Frame Time:	0.0416667
-119.163 12.0453 118.57 -15.1992 -2.89377 -92.1513 -171.2 -8.62139 97.9072 -24.5146 -0.214584 -1.80799 72.9762 5.25855 -5.37534 20.5644 -3.14768 5.34751 158.823 -7.86814 71.7832 -23.5203 -12.5995 0.986002 71.4765 -5.16449 5.08187 34.197 -0.700818 0.440167 -0.753683 7.95448 -89.2322 10.9709 -1.14486 1.6365 -0.70058 -1.07174 1.68526 -23.2347 -1.58375 1.21681 -3.22203 -1.58373 1.21679 83.5095 -20.6883 -125.273 -11.8145 50.0324 32.1099 -53.6259 14.3205 -144.98 -41.4446 -19.4088 40.0729 -91.4772 -35.5 72.4638 27.185 -43.7365 43.5028 22.4811 -36.8877 -154.486 19.0483 5.27318 23.4477 60.3285 1.08726 -7.70982 -22.258 5.60087 4.24834 
-119.002 12.5814 118.206 -14.1895 -0.889089 -92.7603 -171.303 -8.35874 96.787 -23.4631 -0.910751 -2.41166 72.6463 5.45767 -4.12484 20.4643 -3.04293 5.22079 160.099 -4.7201 72.1115 -26.4049 -15.3173 0.259997 71.6817 -5.5118 1.45925 35.2241 -1.01867 1.0565 -0.648685 7.82085 -89.0359 11.2353 -0.842502 2.00296 -0.43696 -0.753531 2.03808 -22.9652 -1.40544 1.65731 -2.95251 -1.40542 1.65731 82.8192 -21.7199 -125.976 -11.4509 49.7816 31.0565 -54.3134 14.1922 -145.616 -41.9408 -20.4631 42.2668 -88.5505 -31.6263 76.563 13.8152 -40.502 36.4999 25.7576 -43.1485 -152.885 20.7301 5.86453 24.1827 59.8211 -0.533378 -11.0803 -22.3332 5.85762 7.20984 
-119.036 12.4914 118.314 -14.2062 -1.20878 -92.9532 -171.483 -8.42293 96.5865 -23.3387 -0.476735 -2.31201 72.3669 5.38752 -3.69783 20.5094 -2.43043 4.43775 159.743 -4.85275 71.7626 -26.1104 -15.2027 0.401432 71.6548 -5.46354 1.86961 35.7822 -0.948604 0.725345 -0.670827 7.79953 -89.0288 11.2788 -0.882681 2.0213 -0.393495 -0.792896 2.05815 -22.9219 -1.44928 1.66272 -2.9092 -1.44928 1.6627 83.2301 -21.1743 -125.512 -8.95945 49.3761 29.7716 -54.9155 15.3833 -144.734 -41.4208 -20.1075 41.9305 -89.1265 -31.811 75.5474 15.4229 -40.2031 37.8909 25.7752 -42.6251 -152.902 21.9308 6.32784 24.8214 59.5458 -0.487576 -11.1232 -22.1967 5.93076 7.08971 
-119.042 12.4832 118.337 -14.1635 -1.28357 -92.9046 -171.517 -8.2692 96.645 -23.5224 -0.888493 -2.29148 72.3556 5.29807 -4.41962 20.8063 -2.6942 4.74804 159.683 -4.84694 71.7476 -25.9667 -15.5229 0.45785 71.5659 -5.43204 1.80204 35.2484 -0.879018 0.663839 -0.634329 7.77086 -89.0482 11.3356 -0.818571 1.97714 -0.336636 -0.730789 2.01121 -22.8649 -1.37488 1.63987 -2.8523 -1.37485 1.63985 83.9637 -20.702 -124.29 -5.17017 48.0285 27.4239 -56.3379 17.5535 -143.007 -40.6208 -19.8081 42.0874 -89.5066 -32.1208 74.936 15.8669 -40.0577 38.0488 26.3644 -43.126 -152.572 22.2692 6.54216 25.3441 59.2542 -0.565643 -11.36 -22.2462 5.82453 7.91628 
-119.049 12.4441 118.443 -14.1833 -1.45289 -93.0184 -171.711 -8.41772 96.387 -23.3787 -0.815163 -2.18399 72.4168 5.35352 -4.1375 20.4542 -2.64313 4.71329 159.381 -4.78148 71.4552 -25.9519 -15.8368 0.596023 71.3725 -5.36409 1.50126 37.2671 -1.14224 0.906889 -0.64874 7.77302 -89.069 11.3316 -0.857004 1.93961 -0.340551 -0.770821 1.97545 -22.8695 -1.40024 1.5925 -2.8569 -1.40025 1.59251 84.0234 -20.4498 -124.344 -4.93098 47.7899 27.4372 -57.1974 18.8629 -142.241 -40.7568 -20.0581 42.2943 -89.7708 -32.8086 74.6641 16.8119 -40.3918 38.2886 26.7139 -43.5516 -152.493 22.3982 6.70991 25.9068 59.5717 -0.200107 -10.4397 -22.3283 5.74686 6.9007 
-119.024 12.3992 118.494 -14.1806 -1.66736 -92.9321 -171.796 -8.32439 96.4292 -23.5343 -0.735613 -2.05232 72.6067 5.41783 -4.14721 20.8489 -3.01356 5.15339 159.301 -5.04657 71.5179 -25.6818 -15.4457 0.673317 71.6231 -5.46571 1.71788 36.7588 -1.09711 0.903986 -0.63741 7.76704 -89.1107 11.3388 -0.853797 1.85679 -0.333204 -0.771238 1.89257 -22.863 -1.37231 1.51447 -2.8503 -1.3723 1.51446 84.3959 -20.2707 -123.668 -3.16092 46.4181 26.2388 -58.9295 20.6734 -140.451 -40.7726 -20.2337 42.4711 -89.9658 -33.1697 74.4207 16.695 -40.4302 37.9303 27.525 -44.4741 -152.068 22.3917 6.81604 26.3631 59.5988 0.0162917 -10.0249 -22.3809 5.6659 6.83902 
-119.037 12.4472 118.413 -14.1845 -1.36031 -93.0157 -171.682 -8.38743 96.4054 -23.405 -0.457665 -2.17989 72.2808 5.33716 -3.88832 20.9989 -2.74868 4.8023 159.505 -4.82521 71.5373 -25.98 -15.4887 0.504026 71.6571 -5.4639 1.85995 36.8695 -0.980538 0.536163 -0.566654 7.77026 -89.1245 11.336 -0.719463 1.81535 -0.336041 -0.638878 1.84524 -22.8652 -1.23173 1.5153 -2.85256 -1.23173 1.51529 84.7673 -20.2533 -122.871 -1.29506 44.9053 24.9219 -60.8526 22.8424 -138.264 -40.9376 -20.3485 42.1904 -90.2184 -33.4614 74.053 15.6695 -39.8165 37.2196 28.6716 -45.8294 -151.305 22.2855 6.82857 26.5247 59.2108 0.0167521 -9.9861 -22.0283 5.49236 7.47495 
-119.043 12.4449 118.414 -14.2177 -1.49683 -93.0409 -171.632 -8.36088 96.47 -23.4501 -0.372345 -2.19973 72.3736 5.36641 -3.82625 20.3547 -2.06863 3.99254 159.392 -4.88729 71.4822 -25.9017 -15.6024 0.579204 71.5293 -5.42855 1.62926 36.9858 -1.02984 0.649705 -0.550993 7.78457 -89.1756 11.3073 -0.712303 1.71244 -0.364609 -0.636281 1.74212 -22.8946 -1.194 1.4193 -2.88199 -1.194 1.41928 85.3324 -19.6266 -122.072 0.964346 43.2221 23.5794 -63.123 24.7645 -135.746 -41.1931 -20.4731 41.7994 -90.5018 -34.0286 73.7217 16.2902 -40.3515 37.2248 29.2306 -46.2174 -151.132 22.9593 7.20217 27.2932 59.4383 0.532045 -8.82485 -21.9557 5.33778 6.65983 
-119.039 12.4521 118.361 -14.1058 -1.36363 -92.9441 -171.563 -8.38382 96.5615 -23.2371 -0.355755 -2.20891 72.4663 5.41195 -3.93808 20.2868 -2.53785 4.59439 159.587 -4.81926 71.6945 -25.983 -15.6503 0.512183 71.6637 -5.50196 1.47526 36.6933 -1.06554 0.829043 -0.496165 7.76653 -89.217 11.3427 -0.622223 1.62146 -0.329179 -0.550243 1.64726 -22.8594 -1.08073 1.35959 -2.84678 -1.08072 1.35958 85.7461 -19.314 -121.371 2.96191 41.5129 22.4489 -65.2194 26.9398 -132.986 -41.1158 -20.2649 41.0004 -90.7904 -34.4501 73.3394 16.136 -40.5145 36.6881 29.811 -46.8167 -150.787 22.788 7.20486 27.5128 59.3606 0.765534 -8.18455 -21.8273 5.16263 6.36273 
-119.044 12.4256 118.388 -14.1263 -1.47401 -93.009 -171.702 -8.31611 96.4296 -23.4492 -0.457573 -2.14031 72.358 5.37317 -3.79294 20.969 -2.88581 4.97912 159.47 -4.91343 71.5977 -25.8507 -15.371 0.559247 71.8033 -5.55097 1.65623 36.4264 -1.04459 0.836293 -0.477869 7.77881 -89.2452 11.3216 -0.59915 1.56252 -0.350214 -0.529822 1.58738 -22.8808 -1.04103 1.3103 -2.86814 -1.04103 1.31029 86.1237 -19.0251 -120.723 4.34123 40.2843 21.6679 -67.1908 28.4263 -130.786 -41.2173 -20.1549 40.2278 -90.9943 -34.6009 73.0243 14.8063 -40.272 36.0714 30.4668 -47.6245 -150.181 21.8002 6.73462 26.7521 59.5168 0.992567 -7.60109 -21.8755 5.03461 6.04665 
-119.033 12.4401 118.399 -14.118 -1.43308 -93.0519 -171.721 -8.38188 96.365 -23.3045 -0.523169 -2.14961 72.3153 5.37043 -3.80566 21.0524 -2.65289 4.67299 159.501 -4.81267 71.5662 -26.0124 -15.1863 0.534015 71.8884 -5.5666 1.82979 36.5677 -1.05923 0.842531 -0.42739 7.78206 -89.2853 11.3208 -0.517371 1.47392 -0.350963 -0.452017 1.49524 -22.8818 -0.936414 1.25031 -2.86916 -0.936406 1.25034 86.7843 -18.6546 -119.479 6.93021 38.0396 19.9779 -69.6016 30.095 -127.483 -42.2203 -20.3048 38.9259 -91.2724 -34.8662 72.6161 14.914 -40.4467 35.7459 30.5645 -47.3342 -150.198 22.8855 7.19342 27.3434 59.538 1.21781 -7.0114 -21.8067 4.83711 6.02294 
-119.031 12.4188 118.464 -14.1649 -1.53111 -93.0556 -171.741 -8.44544 96.3315 -23.2523 -0.354677 -2.13075 72.3441 5.40682 -3.56116 20.5899 -2.09933 4.00935 159.357 -4.85649 71.4593 -25.9552 -15.2799 0.618395 71.7416 -5.48987 1.88863 36.7993 -1.01841 0.664948 -0.39817 7.77423 -89.3255 11.3261 -0.477947 1.39084 -0.345511 -0.416279 1.41051 -22.8768 -0.873813 1.18294 -2.86412 -0.873844 1.18293 87.1182 -18.5587 -118.778 7.93106 37.406 19.1651 -70.8085 30.8124 -125.961 -43.2622 -20.2997 37.2347 -91.5971 -35.1712 72.1431 14.2977 -39.9646 35.2037 30.4652 -46.7798 -149.975 22.677 7.00345 26.803 59.1718 1.22497 -6.62975 -21.7003 4.51958 6.23215 
